#!OML:ASF F:\VICON\USERDATA\INSTALL\rory3\rory3.ASF
:FULLY-SPECIFIED
:DEGREES
1
root -0.0668185 16.4442 -32.0156 2.37197 -2.75714 4.22986
lowerback 15.9302 0.131439 -9.85714
upperback -5.17223 -1.69082 2.21246
thorax -14.6191 0.285128 8.63929
lowerneck -8.43887 -5.32106 -3.59798
upperneck 17.1506 -7.18884 2.35174
head 6.83776 -3.50931 0.734672
rclavicle -1.31571e-014 -3.97569e-015
rhumerus -47.0211 -1.34423 -80.7207
rradius 24.0489
rwrist 11.4116
rhand -10.8464 19.8065
rfingers 7.12502
rthumb 15.1684 -9.61752
lclavicle -1.31571e-014 -3.97569e-015
lhumerus -37.899 6.25995 86.7092
lradius 17.4969
lwrist -5.88809
lhand -5.0895 19.4636
lfingers 7.12502
lthumb 20.7074 48.3788
rfemur -34.7828 21.225 3.94758
rtibia 29.024
rfoot -13.6069 -12.4132
rtoes 17.9698
lfemur 5.46368 -15.3275 -33.3342
ltibia 12.6446
lfoot -17.3021 13.7205
ltoes 15.3322
2
root -0.103939 16.4546 -31.9878 2.67459 -1.89489 4.27385
lowerback 15.513 -0.172655 -9.77105
upperback -5.00025 -2.04829 2.07665
thorax -14.0759 0.0558735 8.4948
lowerneck -8.21772 -5.34636 -3.50962
upperneck 16.6393 -7.28114 2.66639
head 6.64625 -3.5278 0.824958
rclavicle -4.47266e-015 2.38542e-015
rhumerus -46.4609 -1.9396 -80.9009
rradius 24.0357
rwrist 10.8776
rhand -9.70397 18.7664
rfingers 7.12502
rthumb 16.2687 -10.571
lclavicle -4.47266e-015 2.38542e-015
lhumerus -37.2532 5.86001 86.6006
lradius 17.3623
lwrist -5.67
lhand -5.56954 19.2565
lfingers 7.12502
lthumb 20.2461 48.2214
rfemur -34.954 21.8909 3.27763
rtibia 28.1911
rfoot -14.7484 -13.6738
rtoes 20.5442
lfemur 5.72003 -15.2926 -32.9741
ltibia 11.7464
lfoot -16.5588 12.9738
ltoes 14.127
3
root -0.0966313 16.4531 -31.8679 2.52451 -2.00455 4.29471
lowerback 14.2763 -0.241943 -9.08498
upperback -4.52353 -1.88847 1.77391
thorax -12.8052 -0.0537121 7.62671
lowerneck -8.12011 -5.35537 -3.39074
upperneck 16.3568 -7.3486 2.93117
head 6.54655 -3.53479 0.890088
rclavicle -1.62382e-014 -1.03368e-014
rhumerus -46.1106 -2.7366 -80.8757
rradius 24.1093
rwrist 10.1996
rhand -8.51241 19.4016
rfingers 7.12502
rthumb 17.4157 -9.83818
lclavicle -1.62382e-014 -1.03368e-014
lhumerus -36.7055 5.21536 86.6085
lradius 17.499
lwrist -5.18214
lhand -5.69073 19.2438
lfingers 7.12502
lthumb 20.1296 48.2209
rfemur -34.8823 22.713 2.95331
rtibia 27.8987
rfoot -15.6882 -14.2837
rtoes 20.8591
lfemur 7.21169 -15.7838 -33.3706
ltibia 10.3543
lfoot -16.5464 13.6619
ltoes 13.9428
4
root -0.119722 16.4302 -31.8001 2.39257 -2.79341 4.37031
lowerback 14.0522 0.0259961 -9.13708
upperback -4.28693 -1.52094 1.6349
thorax -12.4708 0.0859879 7.39359
lowerneck -8.35132 -5.36161 -3.29083
upperneck 16.2942 -7.38173 3.04378
head 6.56843 -3.53291 0.900906
rclavicle -2.56603e-014 -7.15625e-015
rhumerus -45.9062 -3.02073 -81.0818
rradius 23.6051
rwrist 11.0877
rhand -10.0527 20.7706
rfingers 7.12502
rthumb 15.9329 -8.59399
lclavicle -2.56603e-014 -7.15625e-015
lhumerus -36.3314 4.82251 86.5859
lradius 17.696
lwrist -4.67085
lhand -5.54113 19.5449
lfingers 7.12502
lthumb 20.2734 48.5068
rfemur -35.2428 23.1477 2.85863
rtibia 27.5866
rfoot -15.3618 -14.3328
rtoes 19.7653
lfemur 8.3793 -14.8261 -33.5082
ltibia 9.00803
lfoot -16.3845 13.5141
ltoes 13.7879
5
root -0.123032 16.4175 -31.6921 2.31692 -3.57684 4.43459
lowerback 13.3337 0.228861 -8.92521
upperback -4.01253 -1.13771 1.52185
thorax -11.7984 0.194146 7.0208
lowerneck -8.74832 -5.35378 -3.28692
upperneck 16.3143 -7.37164 3.10723
head 6.64606 -3.51671 0.909673
rclavicle 4.77549e-015 2.38542e-015
rhumerus -45.7057 -3.16612 -81.2172
rradius 23.1858
rwrist 11.8366
rhand -11.0043 20.627
rfingers 7.12502
rthumb 15.0163 -8.80853
lclavicle 4.77549e-015 2.38542e-015
lhumerus -36.0386 4.70008 86.5941
lradius 17.728
lwrist -4.40409
lhand -5.31883 19.6544
lfingers 7.12502
lthumb 20.4871 48.5935
rfemur -35.4649 23.5099 2.81966
rtibia 27.3914
rfoot -15.0794 -14.2227
rtoes 19.2652
lfemur 9.86032 -13.8639 -33.7546
ltibia 7.31303
lfoot -16.2419 13.3922
ltoes 14.0791
6
root -0.152742 16.4118 -31.6364 2.42123 -3.03352 4.55266
lowerback 13.2159 -0.605404 -10.2258
upperback -4.80253 -2.40863 2.55278
thorax -12.3333 -0.186944 9.25222
lowerneck -4.98391 -4.41157 -5.06405
upperneck 15.2622 -5.95912 3.07028
head 5.66888 -2.99283 1.40564
rclavicle -2.48481e-015 -1.51076e-014
rhumerus -47.2604 -0.184354 -80.5252
rradius 22.3737
rwrist 13.2913
rhand -11.989 23.4958
rfingers 7.12502
rthumb 14.0676 -6.00803
lclavicle -2.48481e-015 -1.51076e-014
lhumerus -38.3893 8.29967 86.039
lradius 18.0269
lwrist -5.32941
lhand -4.96449 19.4508
lfingers 7.12502
lthumb 20.8275 48.3529
rfemur -35.5354 23.7279 2.48947
rtibia 27.2349
rfoot -15.4934 -14.8586
rtoes 20.0452
lfemur 10.6049 -14.2764 -33.7536
ltibia 6.23135
lfoot -15.7962 13.3451
ltoes 13.2412
7
root -0.180945 16.4144 -31.5798 2.56034 -2.56583 4.57092
lowerback 13.4315 -0.43003 -9.67515
upperback -4.53903 -2.13359 2.08204
thorax -12.2434 -0.143098 8.33301
lowerneck -6.51822 -4.79065 -4.28428
upperneck 15.6229 -6.52352 3.17088
head 6.04654 -3.19555 1.22869
rclavicle -8.07563e-016 -5.56597e-015
rhumerus -46.615 -2.22059 -80.2628
rradius 21.9854
rwrist 13.99
rhand -11.4882 23.2926
rfingers 7.12502
rthumb 14.5501 -6.17715
lclavicle -8.07563e-016 -5.56597e-015
lhumerus -37.2223 6.78953 86.1944
lradius 17.9543
lwrist -4.98627
lhand -5.21398 19.4551
lfingers 7.12502
lthumb 20.5878 48.3833
rfemur -35.5804 23.6464 2.41377
rtibia 27.0764
rfoot -15.3556 -15.3028
rtoes 19.091
lfemur 11.4198 -14.6239 -33.6138
ltibia 4.92092
lfoot -15.2908 13.198
ltoes 13.1924
8
root -0.208381 16.4047 -31.5182 2.72777 -2.33663 4.58434
lowerback 13.6861 -0.091966 -9.10786
upperback -4.2806 -1.64804 1.54145
thorax -12.2193 0.00261321 7.28459
lowerneck -8.29718 -5.29303 -3.22229
upperneck 16.0481 -7.29896 3.10403
head 6.47732 -3.48658 0.920679
rclavicle -2.29493e-014 -9.54166e-015
rhumerus -46.0307 -4.04874 -80.5185
rradius 22.0425
rwrist 13.8142
rhand -11.542 22.4652
rfingers 7.12502
rthumb 14.4983 -7.00824
lclavicle -2.29493e-014 -9.54166e-015
lhumerus -35.9702 4.75747 86.5303
lradius 17.7987
lwrist -4.20461
lhand -5.86375 19.0065
lfingers 7.12502
lthumb 19.9633 48.001
rfemur -35.7612 23.4674 2.42498
rtibia 27.0497
rfoot -15.2388 -15.287
rtoes 19.062
lfemur 11.5124 -14.7392 -33.508
ltibia 4.89113
lfoot -15.3371 13.0551
ltoes 12.8714
9
root -0.240109 16.3909 -31.4489 2.76807 -2.24684 4.69194
lowerback 14.0587 -0.916962 -10.6565
upperback -5.17322 -2.99227 2.82634
thorax -13.1181 -0.330596 10.0265
lowerneck -5.14574 -4.2382 -5.32389
upperneck 15.3607 -5.65762 2.86075
head 5.71707 -2.87348 1.3991
rclavicle 4.84538e-015 7.15625e-015
rhumerus -47.6767 1.44707 -81.3146
rradius 22.6819
rwrist 11.9285
rhand -11.739 22.1927
rfingers 7.12502
rthumb 14.3085 -7.29427
lclavicle 4.84538e-015 7.15625e-015
lhumerus -38.5637 9.28047 85.9606
lradius 18.0925
lwrist -5.20587
lhand -6.00278 18.5494
lfingers 7.12502
lthumb 19.8297 47.5579
rfemur -35.8092 23.5952 2.368
rtibia 27.0886
rfoot -15.5412 -15.0336
rtoes 21.5113
lfemur 11.7785 -14.6907 -33.5514
ltibia 4.86823
lfoot -15.413 12.9878
ltoes 11.7793
10
root -0.27615 16.3662 -31.3819 2.83059 -1.93513 4.80837
lowerback 14.8932 -0.840292 -11.3845
upperback -5.73612 -3.13283 3.09835
thorax -14.2415 -0.186017 10.9069
lowerneck -4.37422 -4.218 -5.30705
upperneck 15.4789 -5.61035 2.41844
head 5.6078 -2.88845 1.27761
rclavicle -6.75868e-015 -2.62396e-014
rhumerus -49.0232 2.25301 -81.3082
rradius 23.4022
rwrist 10.837
rhand -11.1211 21.3802
rfingers 7.12502
rthumb 14.9038 -8.06362
lclavicle -6.75868e-015 -2.62396e-014
lhumerus -39.5665 9.48575 86.1571
lradius 18.2922
lwrist -5.5785
lhand -5.99581 18.6083
lfingers 7.12502
lthumb 19.8364 47.616
rfemur -35.8977 23.5148 2.38262
rtibia 27.4477
rfoot -15.6672 -14.8617
rtoes 23.4746
lfemur 12.4282 -14.8721 -33.5493
ltibia 4.10564
lfoot -15.1893 12.8969
ltoes 10.8919
11
root -0.313139 16.3671 -31.3281 3.10142 -1.30404 5.00083
lowerback 13.6452 -1.21735 -10.9408
upperback -5.14351 -3.42137 2.68809
thorax -12.7184 -0.552786 10.0906
lowerneck -4.45212 -4.23723 -5.21406
upperneck 14.6947 -5.70267 2.97493
head 5.39208 -2.8872 1.43426
rclavicle -2.48232e-014 -1.51076e-014
rhumerus -48.0007 1.57099 -81.8132
rradius 23.4685
rwrist 10.8076
rhand -10.6358 21.1362
rfingers 7.12502
rthumb 15.3713 -8.27239
lclavicle -2.48232e-014 -1.51076e-014
lhumerus -38.2707 8.67985 86.0819
lradius 18.4405
lwrist -4.97803
lhand -6.36451 18.8173
lfingers 7.12502
lthumb 19.4819 47.8613
rfemur -35.9677 22.5911 2.50392
rtibia 27.8592
rfoot -15.3401 -14.3813
rtoes 24.0209
lfemur 12.7936 -15.4185 -33.5649
ltibia 3.35507
lfoot -14.7491 12.8846
ltoes 9.7409
12
root -0.30453 16.3267 -31.1738 2.64987 -2.52673 5.06822
lowerback 13.1082 -0.881491 -10.5822
upperback -4.86292 -2.83577 2.5771
thorax -12.2261 -0.365186 9.57421
lowerneck -4.89491 -4.28247 -5.24509
upperneck 14.9121 -5.73678 2.92579
head 5.5366 -2.90436 1.41002
rclavicle -9.86469e-015 1.98785e-014
rhumerus -47.874 1.62034 -81.8385
rradius 23.1693
rwrist 11.0584
rhand -11.0654 21.9632
rfingers 7.12502
rthumb 14.9575 -7.47662
lclavicle -9.86469e-015 1.98785e-014
lhumerus -38.3411 8.68465 86.1703
lradius 18.6884
lwrist -4.81401
lhand -6.25275 18.723
lfingers 7.12502
lthumb 19.5894 47.7561
rfemur -35.6678 22.3914 3.13857
rtibia 28.356
rfoot -14.1906 -12.8481
rtoes 23.1201
lfemur 13.9884 -13.9223 -34.004
ltibia 3.13917
lfoot -15.4448 12.6559
ltoes 9.52844
13
root -0.347909 16.3078 -31.1066 2.56372 -2.1376 5.13922
lowerback 13.4405 -0.352376 -9.93578
upperback -4.37983 -2.10396 1.78855
thorax -12.0761 -0.141497 8.13633
lowerneck -6.96396 -5.01341 -3.85147
upperneck 15.3577 -6.83237 3.02559
head 6.03157 -3.32596 1.08008
rclavicle 1.94436e-015 -1.35174e-014
rhumerus -46.8415 -1.79543 -81.4937
rradius 22.5697
rwrist 12.238
rhand -11.6278 22.3701
rfingers 7.12502
rthumb 14.4156 -7.10922
lclavicle 1.94436e-015 -1.35174e-014
lhumerus -36.7788 6.02238 86.3802
lradius 18.6553
lwrist -4.54557
lhand -5.62699 18.6732
lfingers 7.12502
lthumb 20.1909 47.6439
rfemur -35.3754 22.149 3.40264
rtibia 28.7093
rfoot -13.8471 -12.4641
rtoes 24.7417
lfemur 14.7344 -14.1455 -33.9733
ltibia 2.52542
lfoot -15.3299 12.5881
ltoes 8.55116
